HIERARCHY
ROOT Model
{
	OFFSET 0 0 0
	CHANNELS 6 Xposition Yposition Zposition Zrotation Xrotation Yrotation
	JOINT Model1
	{
		OFFSET 0 -2.25479 2.99384
		CHANNELS 3 Zrotation Xrotation Yrotation
		JOINT Model2
		{
			OFFSET 12.111 0 0
			CHANNELS 3 Zrotation Xrotation Yrotation
			JOINT Model3
			{
				OFFSET 11.5502 0 0
				CHANNELS 3 Zrotation Xrotation Yrotation
				JOINT Model4
				{
					OFFSET 11.781 0 0
					CHANNELS 3 Zrotation Xrotation Yrotation
					JOINT Model5
					{
						OFFSET 20.0601 0 0
						CHANNELS 3 Zrotation Xrotation Yrotation
						JOINT Model6
						{
							OFFSET 11.1962 0 0
							CHANNELS 3 Zrotation Xrotation Yrotation
							End Site
							{
								OFFSET 0 0 0
							}
						}
					}
					JOINT Model7
					{
						OFFSET 10.8223 0.417534 3.51114
						CHANNELS 3 Zrotation Xrotation Yrotation
						JOINT Model8
						{
							OFFSET -6.07944 0 0
							CHANNELS 3 Zrotation Xrotation Yrotation
							JOINT Model9
							{
								OFFSET -0.277405 10.39 -0.051239
								CHANNELS 3 Zrotation Xrotation Yrotation
								JOINT Model10
								{
									OFFSET -3.43909 -0.282043 1.86679
									CHANNELS 3 Zrotation Xrotation Yrotation
									JOINT Model11
									{
										OFFSET 13.0269 0 0
										CHANNELS 3 Zrotation Xrotation Yrotation
										JOINT Model12
										{
											OFFSET 10.8866 0 0
											CHANNELS 3 Zrotation Xrotation Yrotation
											JOINT Model13
											{
												OFFSET 16.7317 0 0
												CHANNELS 3 Zrotation Xrotation Yrotation
												JOINT Model14
												{
													OFFSET 11.8292 0 0
													CHANNELS 3 Zrotation Xrotation Yrotation
													JOINT Model15
													{
														OFFSET 4.82751 -3.73566 -0.836517
														CHANNELS 3 Zrotation Xrotation Yrotation
														JOINT Model16
														{
															OFFSET 3.75311 -0.0582886 -0.0186462
															CHANNELS 3 Zrotation Xrotation Yrotation
															JOINT Model17
															{
																OFFSET 2.88689 0.0192337 0.014801
																CHANNELS 3 Zrotation Xrotation Yrotation
																End Site
																{
																	OFFSET 0 0 0
																}
															}
														}
													}
													JOINT Model18
													{
														OFFSET 9.72197 -3.06458 0.23877
														CHANNELS 3 Zrotation Xrotation Yrotation
														JOINT Model19
														{
															OFFSET 4.61131 0 0
															CHANNELS 3 Zrotation Xrotation Yrotation
															JOINT Model20
															{
																OFFSET 2.8969 -7.62939e-006 0
																CHANNELS 3 Zrotation Xrotation Yrotation
																End Site
																{
																	OFFSET 0 0 0
																}
															}
														}
													}
													JOINT Model21
													{
														OFFSET 9.54431 -0.745064 0.588928
														CHANNELS 3 Zrotation Xrotation Yrotation
														JOINT Model22
														{
															OFFSET 5.33978 0 0
															CHANNELS 3 Zrotation Xrotation Yrotation
															JOINT Model23
															{
																OFFSET 3.03619 7.62939e-006 0
																CHANNELS 3 Zrotation Xrotation Yrotation
																End Site
																{
																	OFFSET 0 0 0
																}
															}
														}
													}
													JOINT Model24
													{
														OFFSET 9.47758 1.51286 0.485107
														CHANNELS 3 Zrotation Xrotation Yrotation
														JOINT Model25
														{
															OFFSET 4.96136 7.62939e-006 0
															CHANNELS 3 Zrotation Xrotation Yrotation
															JOINT Model26
															{
																OFFSET 2.51965 0 0
																CHANNELS 3 Zrotation Xrotation Yrotation
																End Site
																{
																	OFFSET 0 0 0
																}
															}
														}
													}
													JOINT Model27
													{
														OFFSET 9.34247 3.34117 -0.239288
														CHANNELS 3 Zrotation Xrotation Yrotation
														JOINT Model28
														{
															OFFSET 3.28259 2.28882e-005 0
															CHANNELS 3 Zrotation Xrotation Yrotation
															JOINT Model29
															{
																OFFSET 2.1292 0 0
																CHANNELS 3 Zrotation Xrotation Yrotation
																End Site
																{
																	OFFSET 0 0 0
																}
															}
														}
													}
												}
											}
										}
									}
								}
							}
						}
					}
					JOINT Model30
					{
						OFFSET 10.8223 0.4179 -3.51108
						CHANNELS 3 Zrotation Xrotation Yrotation
						JOINT Model31
						{
							OFFSET 6.07944 0 0
							CHANNELS 3 Zrotation Xrotation Yrotation
							JOINT Model32
							{
								OFFSET 0.277405 -10.39 0.051239
								CHANNELS 3 Zrotation Xrotation Yrotation
								JOINT Model33
								{
									OFFSET 3.43909 0.282043 -1.86679
									CHANNELS 3 Zrotation Xrotation Yrotation
									JOINT Model34
									{
										OFFSET -13.0269 0 0
										CHANNELS 3 Zrotation Xrotation Yrotation
										JOINT Model35
										{
											OFFSET -10.8866 0 0
											CHANNELS 3 Zrotation Xrotation Yrotation
											JOINT Model36
											{
												OFFSET -16.7317 0 0
												CHANNELS 3 Zrotation Xrotation Yrotation
												JOINT Model37
												{
													OFFSET -11.8292 0 0
													CHANNELS 3 Zrotation Xrotation Yrotation
													JOINT Model38
													{
														OFFSET -4.82751 3.73566 0.836517
														CHANNELS 3 Zrotation Xrotation Yrotation
														JOINT Model39
														{
															OFFSET -3.75311 0.0582886 0.0186462
															CHANNELS 3 Zrotation Xrotation Yrotation
															JOINT Model40
															{
																OFFSET -2.88687 -0.0192337 -0.014801
																CHANNELS 3 Zrotation Xrotation Yrotation
																End Site
																{
																	OFFSET 0 0 0
																}
															}
														}
													}
													JOINT Model41
													{
														OFFSET -9.72198 3.06459 -0.23877
														CHANNELS 3 Zrotation Xrotation Yrotation
														JOINT Model42
														{
															OFFSET -4.6113 0 0
															CHANNELS 3 Zrotation Xrotation Yrotation
															JOINT Model43
															{
																OFFSET -2.89691 0 0
																CHANNELS 3 Zrotation Xrotation Yrotation
																End Site
																{
																	OFFSET 0 0 0
																}
															}
														}
													}
													JOINT Model44
													{
														OFFSET -9.54431 0.745064 -0.588928
														CHANNELS 3 Zrotation Xrotation Yrotation
														JOINT Model45
														{
															OFFSET -5.33978 0 0
															CHANNELS 3 Zrotation Xrotation Yrotation
															JOINT Model46
															{
																OFFSET -3.03619 -1.52588e-005 0
																CHANNELS 3 Zrotation Xrotation Yrotation
																End Site
																{
																	OFFSET 0 0 0
																}
															}
														}
													}
													JOINT Model47
													{
														OFFSET -9.4776 -1.51286 -0.485107
														CHANNELS 3 Zrotation Xrotation Yrotation
														JOINT Model48
														{
															OFFSET -4.96136 -1.52588e-005 0
															CHANNELS 3 Zrotation Xrotation Yrotation
															JOINT Model49
															{
																OFFSET -2.51965 0 0
																CHANNELS 3 Zrotation Xrotation Yrotation
																End Site
																{
																	OFFSET 0 0 0
																}
															}
														}
													}
													JOINT Model50
													{
														OFFSET -9.34247 -3.34118 0.239288
														CHANNELS 3 Zrotation Xrotation Yrotation
														JOINT Model51
														{
															OFFSET -3.28259 -2.28882e-005 0
															CHANNELS 3 Zrotation Xrotation Yrotation
															JOINT Model52
															{
																OFFSET -2.12921 0 0
																CHANNELS 3 Zrotation Xrotation Yrotation
																End Site
																{
																	OFFSET 0 0 0
																}
															}
														}
													}
												}
											}
										}
									}
								}
							}
						}
					}
				}
			}
		}
	}
	JOINT Model53
	{
		OFFSET 4.38025 -2.14632 -1.11517
		CHANNELS 3 Zrotation Xrotation Yrotation
		JOINT Model54
		{
			OFFSET 0 0 4.94998
			CHANNELS 3 Zrotation Xrotation Yrotation
			JOINT Model55
			{
				OFFSET 18.5642 0 0
				CHANNELS 3 Zrotation Xrotation Yrotation
				JOINT Model56
				{
					OFFSET 21.2884 0 0
					CHANNELS 3 Zrotation Xrotation Yrotation
					JOINT Model57
					{
						OFFSET 30.261 0 0
						CHANNELS 3 Zrotation Xrotation Yrotation
						JOINT Model58
						{
							OFFSET 11.7259 0 0
							CHANNELS 3 Zrotation Xrotation Yrotation
							JOINT Model59
							{
								OFFSET 10.682 0 0
								CHANNELS 3 Zrotation Xrotation Yrotation
								End Site
								{
									OFFSET 0 0 0
								}
							}
						}
					}
				}
			}
		}
	}
	JOINT Model60
	{
		OFFSET -4.38025 -2.14632 -1.11517
		CHANNELS 3 Zrotation Xrotation Yrotation
		JOINT Model61
		{
			OFFSET 0 0 -4.94998
			CHANNELS 3 Zrotation Xrotation Yrotation
			JOINT Model62
			{
				OFFSET -18.5642 0 0
				CHANNELS 3 Zrotation Xrotation Yrotation
				JOINT Model63
				{
					OFFSET -21.2884 0 0
					CHANNELS 3 Zrotation Xrotation Yrotation
					JOINT Model64
					{
						OFFSET -30.261 0 0
						CHANNELS 3 Zrotation Xrotation Yrotation
						JOINT Model65
						{
							OFFSET -11.7259 0 0
							CHANNELS 3 Zrotation Xrotation Yrotation
							JOINT Model66
							{
								OFFSET -10.682 0 0
								CHANNELS 3 Zrotation Xrotation Yrotation
								End Site
								{
									OFFSET 0 0 0
								}
							}
						}
					}
				}
			}
		}
	}
}
MOTION
Frames: 4
Frame Time: 0.033333
-321.461 163.884 -343.038 82.4426 -52.3215 84.614 -180 4.29621e-031 -90 0.542104 0.908465 -1.77811 1.11232 1.79919 -3.5654 1.11232 1.79963 -3.56541 -15.0459 -4.50512 1.22556 24.1695 -2.62158 8.87892 120.092 75.5343 58.4939 -14.9261 -5.2703 0.575411 -167.277 84.4999 48.8109 -174.279 3.05479 2.57592 -4.46474e-006 28.0415 3.42026e-005 -57.0243 -7.48288 0.515715 -1.84274e-007 -11.8968 -3.859e-007 -0.828674 0.0251224 -3.47282 -72.0648 39.0385 39.3397 33.3638 2.10362 14.835 0.588947 0.308273 6.35287 -99.6409 81.413 100.35 -0.0181409 2.78113e-005 -0.117315 -0.124139 0.00241116 -0.799296 -79.8382 79.5773 80.5374 -0.000225783 -0.000220891 2.2258e-005 -0.000956235 0.000122938 -2.72346e-005 -66.7416 80.4058 67.2171 -0.000437137 1.59776e-005 -2.72576e-005 -0.00013661 -0.000109248 -5.45559e-005 -6.42159 81.2158 8.01779 -0.000218566 1.69379e-005 0.000212203 0.000901584 -0.000184761 -0.000218481 -59.9282 75.5373 58.5147 -2.77493 2.72364 1.70608 -167.277 84.4999 48.8109 -174.833 12.0057 35.2664 -6.60093e-006 24.999 3.20952e-005 -72.9084 11.3655 0.593418 -5.73661e-006 16.4326 2.45158e-006 -3.35975 0.172176 -5.86564 -72.0648 39.0385 39.3397 33.3638 2.10361 14.835 0.588946 0.308273 6.35287 -99.6409 81.413 100.35 -0.0181409 3.00728e-005 -0.117315 -0.124139 0.00241112 -0.799296 -79.8382 79.5773 80.5374 -0.000260653 -0.000218573 2.35184e-005 -0.000956235 0.000122987 -2.73912e-005 -66.7416 80.4058 67.2171 -0.000437141 1.48756e-005 -2.73732e-005 -0.000136615 -0.000109291 -5.47126e-005 -6.42159 81.2158 8.01779 -0.00021858 1.95795e-005 0.000212248 0.000901565 -0.000191244 -0.000218633 0.000811311 0.56661 89.91 -58.6207 -1.32394 -2.48507 -1.31644e-007 -1.80712 -1.24511e-009 48.7221 4.53029 -0.00634657 -7.42132e-008 6.70564 -9.7907e-008 -47.8805 6.88993 -5.62305 -35.4947 5.6573e-007 6.1403e-007 -180 -0.566579 -90.09 -2.22953 -5.33815 -8.90333 -8.38768e-007 -0.46483 -2.9035e-008 64.1326 -2.47866 -0.00718735 2.86345e-007 -3.82782 -2.80631e-007 -36.3099 -0.703171 1.08735 -44.9018 -19.8156 -2.31019 
-315.37 164.524 -335.443 83.3627 -46.9837 85.7841 -180 4.29621e-031 -90 0.682232 -0.643155 -2.20606 1.33929 -1.31249 -4.40474 1.33929 -1.31205 -4.40475 -15.9639 -5.94809 7.66678 25.485 -2.15397 5.08046 120.092 75.5343 58.4939 -14.7366 0.0172062 2.97212 -167.277 84.4999 48.8109 165.033 2.62898 8.83807 -2.02817e-006 24.3194 3.3127e-005 -62.8741 -4.51544 0.543956 -1.54023e-007 -7.43863 -3.80816e-007 -1.74046 0.087502 -5.75576 -72.0648 39.0385 39.3397 33.3638 2.10362 14.835 0.588947 0.308273 6.35287 -99.6409 81.413 100.35 -0.0181409 2.78113e-005 -0.117315 -0.124139 0.00241116 -0.799296 -79.8382 79.5773 80.5374 -0.000225783 -0.000220891 2.2258e-005 -0.000956235 0.000122938 -2.72346e-005 -66.7416 80.4058 67.2171 -0.000437137 1.59776e-005 -2.72576e-005 -0.00013661 -0.000109248 -5.45559e-005 -6.42159 81.2158 8.01779 -0.000218566 1.69379e-005 0.000212203 0.000901584 -0.000184761 -0.000218481 -59.9282 75.5373 58.5147 -10.4461 -0.0865596 2.12805 -167.277 84.4999 48.8109 -172.671 3.30948 36.621 2.13192e-006 9.42896 2.94868e-005 -37.19 10.4973 0.373826 -5.68083e-006 15.1744 2.43639e-006 -3.47211 -0.0111413 0.367545 -72.0648 39.0385 39.3397 33.3638 2.10361 14.835 0.588946 0.308273 6.35287 -99.6409 81.413 100.35 -0.0181409 3.00728e-005 -0.117315 -0.124139 0.00241112 -0.799296 -79.8382 79.5773 80.5374 -0.000260653 -0.000218573 2.35184e-005 -0.000956235 0.000122987 -2.73912e-005 -66.7416 80.4058 67.2171 -0.000437141 1.48756e-005 -2.73732e-005 -0.000136615 -0.000109291 -5.47126e-005 -6.42159 81.2158 8.01779 -0.00021858 1.95795e-005 0.000212248 0.000901565 -0.000191244 -0.000218633 0.000811311 0.56661 89.91 -56.3373 -1.55051 -0.646506 -1.31652e-007 -2.1758 -1.24538e-009 57.1627 5.60716 -0.00711116 -7.14444e-008 8.30912 -9.82688e-008 -53.5684 9.87306 -7.47487 -35.9027 -1.1613 0.0544626 -180 -0.566579 -90.09 -24.1052 -5.29472 -10.4762 -8.39884e-007 -2.66571 -2.90655e-008 83.7007 -0.375578 -0.0079259 3.01729e-007 -0.68567 -2.80025e-007 -43.7209 -2.35113 2.0459 -49.0814 -11.1493 -2.7096 
-309.912 166.193 -328.277 83.2991 -42.7298 88.2456 -180 4.29621e-031 -90 0.971788 -2.04357 -1.85574 1.87859 -4.11771 -3.68008 1.87859 -4.11727 -3.6801 -15.5305 -6.24227 13.0843 25.671 -1.15306 1.03189 120.092 75.5343 58.4939 -6.77886 11.3136 5.6793 -167.277 84.4999 48.8109 144.127 -2.31407 12.0421 2.34752e-006 17.0651 3.15777e-005 -67.4656 -0.546485 0.562598 -1.144e-007 -1.46822 -3.77735e-007 -3.52844 0.286294 -9.27457 -72.0648 39.0385 39.3397 33.3638 2.10362 14.835 0.588947 0.308273 6.35287 -99.6409 81.413 100.35 -0.0181409 2.78113e-005 -0.117315 -0.124139 0.00241116 -0.799296 -79.8382 79.5773 80.5374 -0.000225783 -0.000220891 2.2258e-005 -0.000956235 0.000122938 -2.72346e-005 -66.7416 80.4058 67.2171 -0.000437137 1.59776e-005 -2.72576e-005 -0.00013661 -0.000109248 -5.45559e-005 -6.42159 81.2158 8.01779 -0.000218566 1.69379e-005 0.000212203 0.000901584 -0.000184761 -0.000218481 -59.9282 75.5373 58.5147 -13.2848 -2.66426 1.5142 -167.277 84.4999 48.8109 -179.277 -7.88991 26.3487 6.90447e-006 0.114462 2.90885e-005 -1.61585 8.16872 -0.0885717 -5.5549e-006 12.2795 2.40649e-006 -13.1088 0.563281 -4.89955 -72.0648 39.0385 39.3397 33.3638 2.10361 14.835 0.588946 0.308273 6.35287 -99.6409 81.413 100.35 -0.0181409 3.00728e-005 -0.117315 -0.124139 0.00241112 -0.799296 -79.8382 79.5773 80.5374 -0.000260653 -0.000218573 2.35184e-005 -0.000956235 0.000122987 -2.73912e-005 -66.7416 80.4058 67.2171 -0.000437141 1.48756e-005 -2.73732e-005 -0.000136615 -0.000109291 -5.47126e-005 -6.42159 81.2158 8.01779 -0.00021858 1.95795e-005 0.000212248 0.000901565 -0.000191244 -0.000218633 0.000811311 0.56661 89.91 -51.9641 -0.987177 -1.72342 -1.31631e-007 -1.17475 -1.24475e-009 61.2791 6.91239 -0.00745671 -6.80411e-008 10.2621 -9.8818e-008 -61.6973 12.0119 -8.10295 -35.7656 -0.770716 0.0380047 -180 -0.566579 -90.09 -48.6307 -3.36987 -10.2254 -8.40226e-007 -3.33868 -2.90834e-008 94.8873 2.16999 -0.0079505 3.20404e-007 3.13249 -2.80424e-007 -49.0541 -3.80385 2.75235 -35.4947 2.54471e-007 -6.66066e-008 
-304.107 169.967 -320.946 83.1746 -41.6709 91.3728 -180 4.29621e-031 -90 1.33334 -3.18842 -0.832203 2.6262 -6.39549 -1.59347 2.6262 -6.39506 -1.59349 -13.6579 -3.41856 14.5 25.602 1.38987 -1.59539 120.092 75.5343 58.4939 5.78122 19.0037 4.13554 -167.277 84.4999 48.8109 126.538 -6.14579 1.73299 6.71988e-006 9.20939 3.05816e-005 -72.912 1.40893 0.582296 -9.48476e-008 1.49783 -3.7774e-007 -2.84074 0.37428 -15.0084 -72.0648 39.0385 39.3397 33.3638 2.10362 14.835 0.588947 0.308273 6.35287 -99.6409 81.413 100.35 -0.0181409 2.78113e-005 -0.117315 -0.124139 0.00241116 -0.799296 -79.8382 79.5773 80.5374 -0.000225783 -0.000220891 2.2258e-005 -0.000956235 0.000122938 -2.72346e-005 -66.7416 80.4058 67.2171 -0.000437137 1.59776e-005 -2.72576e-005 -0.00013661 -0.000109248 -5.45559e-005 -6.42159 81.2158 8.01779 -0.000218566 1.69379e-005 0.000212203 0.000901584 -0.000184761 -0.000218481 -59.9282 75.5373 58.5147 -10.8731 -2.89988 1.03277 -167.277 84.4999 48.8109 -168.154 -9.55903 16.2508 6.40234e-006 1.10338 2.90938e-005 -16.0732 5.01886 0.132067 -5.34244e-006 7.25504 2.37042e-006 -10.2418 0.269274 -3.00412 -72.0648 39.0385 39.3397 33.3638 2.10361 14.835 0.588946 0.308273 6.35287 -99.6409 81.413 100.35 -0.0181409 3.00728e-005 -0.117315 -0.124139 0.00241112 -0.799296 -79.8382 79.5773 80.5374 -0.000260653 -0.000218573 2.35184e-005 -0.000956235 0.000122987 -2.73912e-005 -66.7416 80.4058 67.2171 -0.000437141 1.48756e-005 -2.73732e-005 -0.000136615 -0.000109291 -5.47126e-005 -6.42159 81.2158 8.01779 -0.00021858 1.95795e-005 0.000212248 0.000901565 -0.000191244 -0.000218633 0.000811311 0.56661 89.91 -42.8716 -1.4088 -6.3843 -1.31616e-007 -0.51504 -1.24454e-009 57.4358 8.35568 -0.00720075 -6.42105e-008 12.4316 -9.95718e-008 -66.2027 12.5491 -7.93269 -35.9568 -1.31697 0.0605504 -180 -0.566579 -90.09 -69.366 -1.1549 -7.55255 -8.39791e-007 -2.4823 -2.90613e-008 96.877 2.49303 -0.00796893 3.22782e-007 3.61757 -2.80564e-007 -52.5494 -4.05789 2.60966 -35.4947 8.30442e-007 -2.48629e-007 
